<svg xmlns="http://www.w3.org/2000/svg" viewBox="0 0 250 175"><defs><style>.cls-1{fill:#131515;}.cls-2{fill:#74c69d;}.cls-3{opacity:0.7;}.cls-4{fill:#40916c;}.cls-5{fill:#1b4332;}</style></defs><g id="Calque_2" data-name="Calque 2"><g id="Calque_1-2" data-name="Calque 1"><path class="cls-1" d="M21.92,0H125a0,0,0,0,1,0,0V175a0,0,0,0,1,0,0H21.92A21.92,21.92,0,0,1,0,153.08V21.92A21.92,21.92,0,0,1,21.92,0Z"/><path class="cls-2" d="M130,170V5.1A120.15,120.15,0,0,1,245,125v45Z"/><path class="cls-1" d="M135,10.43A115,115,0,0,1,240,125v40H135V10.43M125,0h0V175H250V125A125,125,0,0,0,125,0Z"/><g class="cls-3"><path class="cls-4" d="M240,165H135V30h0c58,0,105,48.43,105,108.17Z"/></g><g class="cls-3"><path class="cls-5" d="M240,165H135V50h0c58,0,105,41.26,105,92.15Z"/></g></g></g></svg>